<svg width="32" height="32" viewBox="0 0 32 32" fill="none" xmlns="http://www.w3.org/2000/svg">
<g clip-path="url(#clip0_1812_40537)">
<path fill-rule="evenodd" clip-rule="evenodd" d="M17.441 28.7891H15.5609C11.678 28.7891 8.53027 25.6553 8.53027 21.7896V3.24219H10.4104C14.2933 3.24219 17.441 6.37597 17.441 10.2417V28.7891Z" fill="#0096FF"/>
<path fill-rule="evenodd" clip-rule="evenodd" d="M18.8716 9.70038V8.99316C18.8716 7.53264 20.0622 6.34863 21.5309 6.34863H24.1036V7.0558C24.1036 8.51637 22.9129 9.70038 21.4443 9.70038H18.8716Z" fill="#FF7F8A"/>
<path fill-rule="evenodd" clip-rule="evenodd" d="M11.0645 20.4913V18.6112C11.0645 14.7283 14.2084 11.5806 18.0867 11.5806H24.8802V13.4607C24.8802 17.3436 21.7362 20.4913 17.8579 20.4913H11.0645Z" fill="#FFB200"/>
<path fill-rule="evenodd" clip-rule="evenodd" d="M17.441 28.7891H15.5609C11.678 28.7891 8.53027 25.6553 8.53027 21.7896V3.24219H10.4104C14.2933 3.24219 17.441 6.37597 17.441 10.2417V28.7891Z" fill="#423DA1"/>
<path fill-rule="evenodd" clip-rule="evenodd" d="M18.8716 9.70038V8.99316C18.8716 7.53264 20.0622 6.34863 21.5309 6.34863H24.1036V7.0558C24.1036 8.51637 22.9129 9.70038 21.4443 9.70038H18.8716Z" fill="#FF3345"/>
<path fill-rule="evenodd" clip-rule="evenodd" d="M11.0645 20.4913V18.6112C11.0645 14.7283 14.2085 11.5806 18.0867 11.5806H24.8802V13.4607C24.8802 17.3436 21.7362 20.4913 17.8579 20.4913H11.0645Z" fill="#FF7700"/>
<path fill-rule="evenodd" clip-rule="evenodd" d="M18.853 9.69111V8.98461C18.853 7.52557 20.0424 6.34277 21.5096 6.34277H24.0797V7.04922C24.0797 8.50831 22.8903 9.69111 21.4231 9.69111H18.853Z" fill="#FF275B"/>
<path fill-rule="evenodd" clip-rule="evenodd" d="M11.0542 20.4715V18.5933C11.0542 14.7143 14.195 11.5698 18.0693 11.5698H24.8559V13.448C24.8559 17.327 21.7151 20.4715 17.8407 20.4715H11.0542Z" fill="#FF8D23"/>
</g>
<defs>
<clipPath id="clip0_1812_40537">
<rect width="32" height="32" fill="white"/>
</clipPath>
</defs>
</svg>
