<svg width="400" height="180" viewBox="0 0 400 180" fill="none" xmlns="http://www.w3.org/2000/svg">
<path fill-rule="evenodd" clip-rule="evenodd" d="M73.3136 141.634H65.5793C49.606 141.634 36.6572 128.627 36.6572 112.581V35.5977H44.3916C60.3648 35.5977 73.3136 48.6049 73.3136 64.6502V141.634Z" fill="#423DA1"/>
<path fill-rule="evenodd" clip-rule="evenodd" d="M79.1992 62.4032V59.4677C79.1992 53.4056 84.0972 48.4912 90.1389 48.4912H100.722V51.4264C100.722 57.4888 95.8243 62.4032 89.7825 62.4032H79.1992Z" fill="#FF275B"/>
<path fill-rule="evenodd" clip-rule="evenodd" d="M47.083 107.193V99.3897C47.083 83.2731 60.0166 70.208 75.9708 70.208H103.917V78.0118C103.917 94.1284 90.9837 107.193 75.0295 107.193H47.083Z" fill="#FF8D23"/>
<path fill-rule="evenodd" clip-rule="evenodd" d="M187.908 64.9404L192.989 64.0645V105.724C191.824 106.053 190.33 106.381 188.509 106.71C186.688 107.038 184.593 107.202 182.225 107.202C180.04 107.202 178.073 106.856 176.324 106.162C174.576 105.469 173.082 104.484 171.844 103.206C170.605 101.929 169.649 100.369 168.975 98.5256C168.301 96.6826 167.965 94.6114 167.965 92.3122C167.965 90.1224 168.247 88.1152 168.811 86.2904C169.376 84.4656 170.205 82.8963 171.297 81.5824C172.39 80.2686 173.729 79.2467 175.313 78.5168C176.898 77.7869 178.71 77.4219 180.75 77.4219C182.389 77.4219 183.837 77.6409 185.094 78.0788C186.351 78.5168 187.289 78.9365 187.908 79.3379V64.9404ZM134.58 78.0785H123.816V69.2648L118.734 70.1407V95.5418C118.734 97.4396 118.889 99.1092 119.199 100.551C119.508 101.992 120.046 103.206 120.811 104.191C121.576 105.177 122.586 105.916 123.843 106.408C125.1 106.901 126.693 107.147 128.624 107.147C130.263 107.147 131.72 106.956 132.995 106.573C134.27 106.189 135.163 105.87 135.673 105.615L134.689 101.399C134.325 101.545 133.678 101.792 132.749 102.138C131.82 102.485 130.591 102.658 129.061 102.658C128.187 102.658 127.422 102.549 126.766 102.33C126.111 102.111 125.564 101.737 125.127 101.208C124.69 100.679 124.362 99.9487 124.144 99.018C123.925 98.0874 123.816 96.9104 123.816 95.487V82.3485H134.58V78.0785ZM153.84 102.796C152.911 102.851 151.846 102.878 150.644 102.878C148.64 102.878 147.056 102.522 145.89 101.811C144.724 101.099 144.142 99.8308 144.142 98.006C144.142 97.0206 144.378 96.2268 144.852 95.6246C145.325 95.0225 145.917 94.548 146.628 94.2013C147.338 93.8546 148.121 93.6265 148.977 93.517C149.833 93.4075 150.644 93.3528 151.409 93.3528C152.574 93.3528 153.567 93.4166 154.386 93.5444C155.206 93.6721 155.798 93.8272 156.162 94.0097V102.495C155.543 102.641 154.769 102.741 153.84 102.796ZM150.207 77.3681C152.246 77.3681 153.968 77.6327 155.37 78.1618C156.772 78.691 157.902 79.4392 158.758 80.4063C159.614 81.3735 160.224 82.5231 160.588 83.8552C160.952 85.1873 161.134 86.6562 161.134 88.2621V106.054C160.697 106.127 160.087 106.227 159.304 106.355C158.521 106.483 157.637 106.601 156.654 106.711C155.67 106.82 154.605 106.921 153.458 107.012C152.31 107.103 151.172 107.149 150.043 107.149C148.44 107.149 146.965 106.984 145.617 106.656C144.269 106.327 143.103 105.807 142.12 105.096C141.136 104.384 140.371 103.444 139.825 102.276C139.279 101.109 139.005 99.7035 139.005 98.0612C139.005 96.4919 139.324 95.1415 139.962 94.0101C140.599 92.8788 141.464 91.9664 142.557 91.273C143.65 90.5795 144.925 90.0686 146.382 89.7401C147.839 89.4117 149.369 89.2474 150.971 89.2474C151.481 89.2474 152.01 89.2748 152.556 89.3296C153.102 89.3843 153.621 89.4573 154.113 89.5485C154.605 89.6398 155.033 89.7219 155.397 89.7949C155.762 89.8679 156.016 89.9226 156.162 89.9591V88.5358C156.162 87.6964 156.071 86.8661 155.889 86.0449C155.707 85.2238 155.379 84.4939 154.905 83.8552C154.432 83.2165 153.785 82.7056 152.966 82.3224C152.146 81.9392 151.081 81.7476 149.769 81.7476C148.094 81.7476 146.628 81.8662 145.371 82.1034C144.114 82.3406 143.176 82.587 142.557 82.8424L141.956 78.6272C142.612 78.3352 143.704 78.0524 145.234 77.7786C146.764 77.5049 148.422 77.3681 150.207 77.3681ZM185.23 82.623C186.396 83.0975 187.288 83.5902 187.907 84.1011V102.112C187.397 102.258 186.678 102.395 185.749 102.522C184.82 102.65 183.664 102.714 182.28 102.714C179.548 102.714 177.362 101.811 175.723 100.004C174.084 98.1976 173.264 95.6338 173.264 92.3127C173.264 90.8528 173.41 89.4842 173.701 88.2069C173.993 86.9295 174.466 85.8255 175.122 84.8949C175.778 83.9642 176.624 83.2343 177.663 82.7051C178.701 82.1759 179.948 81.9114 181.405 81.9114C182.79 81.9114 184.064 82.1486 185.23 82.623ZM214.544 102.796C213.615 102.851 212.55 102.878 211.348 102.878C209.344 102.878 207.76 102.522 206.594 101.811C205.428 101.099 204.846 99.8308 204.846 98.006C204.846 97.0206 205.082 96.2268 205.556 95.6246C206.03 95.0225 206.621 94.548 207.332 94.2013C208.042 93.8546 208.825 93.6265 209.681 93.517C210.537 93.4075 211.348 93.3528 212.113 93.3528C213.278 93.3528 214.271 93.4166 215.091 93.5444C215.91 93.6721 216.502 93.8272 216.866 94.0097V102.495C216.247 102.641 215.473 102.741 214.544 102.796ZM210.911 77.3681C212.951 77.3681 214.672 77.6327 216.074 78.1618C217.476 78.691 218.606 79.4392 219.462 80.4063C220.318 81.3735 220.928 82.5231 221.292 83.8552C221.656 85.1873 221.839 86.6562 221.839 88.2621V106.054C221.401 106.127 220.791 106.227 220.008 106.355C219.225 106.483 218.342 106.601 217.358 106.711C216.375 106.82 215.309 106.921 214.162 107.012C213.014 107.103 211.876 107.149 210.747 107.149C209.144 107.149 207.669 106.984 206.321 106.656C204.973 106.327 203.808 105.807 202.824 105.096C201.841 104.384 201.076 103.444 200.529 102.276C199.983 101.109 199.71 99.7035 199.71 98.0612C199.71 96.4919 200.028 95.1415 200.666 94.0101C201.303 92.8788 202.168 91.9664 203.261 91.273C204.354 90.5795 205.629 90.0686 207.086 89.7401C208.543 89.4117 210.073 89.2474 211.676 89.2474C212.186 89.2474 212.714 89.2748 213.26 89.3296C213.807 89.3843 214.326 89.4573 214.817 89.5485C215.309 89.6398 215.737 89.7219 216.101 89.7949C216.466 89.8679 216.721 89.9226 216.866 89.9591V88.5358C216.866 87.6964 216.775 86.8661 216.593 86.0449C216.411 85.2238 216.083 84.4939 215.61 83.8552C215.136 83.2165 214.49 82.7056 213.67 82.3224C212.85 81.9392 211.785 81.7476 210.474 81.7476C208.798 81.7476 207.332 81.8662 206.075 82.1034C204.818 82.3406 203.88 82.587 203.261 82.8424L202.66 78.6272C203.316 78.3352 204.409 78.0524 205.938 77.7786C207.468 77.5049 209.126 77.3681 210.911 77.3681ZM235.28 106.162C235.936 105.432 236.264 104.574 236.264 103.589C236.264 102.603 235.936 101.746 235.28 101.016C234.624 100.286 233.732 99.9209 232.603 99.9209C231.473 99.9209 230.581 100.286 229.925 101.016C229.27 101.746 228.942 102.603 228.942 103.589C228.942 104.574 229.27 105.432 229.925 106.162C230.581 106.892 231.473 107.257 232.603 107.257C233.732 107.257 234.624 106.892 235.28 106.162ZM248.448 78.0785H259.212V82.3485H248.448V95.487C248.448 96.9104 248.558 98.0874 248.776 99.018C248.995 99.9487 249.323 100.679 249.76 101.208C250.197 101.737 250.743 102.111 251.399 102.33C252.055 102.549 252.819 102.658 253.694 102.658C255.224 102.658 256.453 102.485 257.382 102.138C258.311 101.792 258.957 101.545 259.322 101.399L260.305 105.615C259.795 105.87 258.903 106.189 257.628 106.573C256.353 106.956 254.896 107.147 253.257 107.147C251.326 107.147 249.732 106.901 248.476 106.408C247.219 105.916 246.208 105.177 245.443 104.191C244.678 103.206 244.141 101.992 243.831 100.551C243.522 99.1092 243.367 97.4396 243.367 95.5418V70.1407L248.448 69.2648V78.0785ZM265.168 85.7712C264.439 87.6508 264.075 89.8496 264.075 92.3678C264.075 94.5211 264.357 96.501 264.922 98.3075C265.486 100.114 266.351 101.674 267.517 102.988C268.683 104.302 270.167 105.333 271.97 106.081C273.773 106.829 275.913 107.203 278.39 107.203C280.357 107.203 282.115 107.021 283.663 106.656C285.211 106.291 286.295 105.944 286.914 105.616L286.204 101.346C285.584 101.638 284.665 101.939 283.444 102.249C282.224 102.559 280.722 102.714 278.937 102.714C275.768 102.714 273.436 101.948 271.943 100.415C270.449 98.8823 269.593 96.6379 269.375 93.6817H288.826C288.863 93.3897 288.881 93.0704 288.881 92.7237V91.8751C288.881 86.9847 287.861 83.3443 285.821 80.9538C283.781 78.5633 280.849 77.3681 277.024 77.3681C275.385 77.3681 273.782 77.6783 272.216 78.2987C270.65 78.9191 269.265 79.8498 268.063 81.0906C266.861 82.3315 265.896 83.8917 265.168 85.7712ZM283.581 89.5744C283.617 87.2752 283.044 85.3866 281.86 83.9085C280.676 82.4304 279.046 81.6913 276.97 81.6913C275.804 81.6913 274.775 81.9194 273.882 82.3756C272.99 82.8318 272.234 83.4249 271.615 84.1548C270.996 84.8847 270.513 85.7241 270.167 86.673C269.821 87.6219 269.593 88.589 269.484 89.5744H283.581ZM309.016 102.796C308.087 102.851 307.021 102.878 305.819 102.878C303.816 102.878 302.231 102.522 301.066 101.811C299.9 101.099 299.317 99.8308 299.317 98.006C299.317 97.0206 299.554 96.2268 300.028 95.6246C300.501 95.0225 301.093 94.548 301.803 94.2013C302.514 93.8546 303.297 93.6265 304.153 93.517C305.009 93.4075 305.819 93.3528 306.584 93.3528C307.75 93.3528 308.743 93.4166 309.562 93.5444C310.382 93.6721 310.974 93.8272 311.338 94.0097V102.495C310.719 102.641 309.945 102.741 309.016 102.796ZM305.382 77.3681C307.422 77.3681 309.143 77.6327 310.546 78.1618C311.948 78.691 313.077 79.4392 313.933 80.4063C314.789 81.3735 315.399 82.5231 315.764 83.8552C316.128 85.1873 316.31 86.6562 316.31 88.2621V106.054C315.873 106.127 315.263 106.227 314.48 106.355C313.697 106.483 312.813 106.601 311.83 106.711C310.846 106.82 309.781 106.921 308.633 107.012C307.486 107.103 306.348 107.149 305.218 107.149C303.616 107.149 302.14 106.984 300.793 106.656C299.445 106.327 298.279 105.807 297.296 105.096C296.312 104.384 295.547 103.444 295.001 102.276C294.454 101.109 294.181 99.7035 294.181 98.0612C294.181 96.4919 294.5 95.1415 295.137 94.0101C295.775 92.8788 296.64 91.9664 297.733 91.273C298.826 90.5795 300.1 90.0686 301.558 89.7401C303.015 89.4117 304.544 89.2474 306.147 89.2474C306.657 89.2474 307.185 89.2748 307.732 89.3296C308.278 89.3843 308.797 89.4573 309.289 89.5485C309.781 89.6398 310.209 89.7219 310.573 89.7949C310.937 89.8679 311.192 89.9226 311.338 89.9591V88.5358C311.338 87.6964 311.247 86.8661 311.065 86.0449C310.883 85.2238 310.555 84.4939 310.081 83.8552C309.608 83.2165 308.961 82.7056 308.142 82.3224C307.322 81.9392 306.257 81.7476 304.945 81.7476C303.27 81.7476 301.803 81.8662 300.547 82.1034C299.29 82.3406 298.352 82.587 297.733 82.8424L297.132 78.6272C297.787 78.3352 298.88 78.0524 300.41 77.7786C301.94 77.5049 303.597 77.3681 305.382 77.3681ZM329.341 77.9691C327.429 78.2976 325.89 78.6078 324.724 78.8998V106.545H329.806V82.5128C329.952 82.4763 330.243 82.4216 330.68 82.3486C331.117 82.2756 331.6 82.2118 332.128 82.157C332.656 82.1023 333.212 82.0566 333.795 82.0201C334.377 81.9837 334.924 81.9654 335.434 81.9654C336.636 81.9654 337.628 82.157 338.412 82.5402C339.195 82.9234 339.814 83.5165 340.269 84.3194C340.725 85.1223 341.043 86.1259 341.226 87.3303C341.408 88.5347 341.499 89.9762 341.499 91.655V106.545H346.58V90.5602C346.58 89.3193 346.507 88.1332 346.362 87.0018C346.216 85.8705 345.997 84.8303 345.706 83.8814C346.107 83.5165 346.862 83.1059 347.973 82.6497C349.084 82.1935 350.496 81.9654 352.208 81.9654C353.447 81.9654 354.457 82.157 355.241 82.5402C356.024 82.9234 356.643 83.5165 357.098 84.3194C357.554 85.1223 357.863 86.1259 358.027 87.3303C358.191 88.5347 358.273 89.9762 358.273 91.655V106.545H363.354V90.5602C363.354 88.6624 363.218 86.9106 362.945 85.3048C362.671 83.6989 362.143 82.3121 361.36 81.1443C360.577 79.9764 359.493 79.0731 358.109 78.4344C356.725 77.7958 354.94 77.4764 352.754 77.4764C351.625 77.4764 350.569 77.595 349.585 77.8323C348.602 78.0695 347.709 78.3432 346.908 78.6534C346.107 78.9636 345.433 79.283 344.886 79.6114C344.34 79.9399 343.939 80.1954 343.684 80.3778C342.846 79.4289 341.808 78.7082 340.57 78.2155C339.331 77.7228 337.801 77.4764 335.98 77.4764C333.467 77.4764 331.254 77.6407 329.341 77.9691Z" fill="#252525"/>
<path fill-rule="evenodd" clip-rule="evenodd" d="M171.518 130.171C172.263 130.67 173.061 131.311 173.913 132.095C174.765 132.879 175.605 133.728 176.433 134.642C177.261 135.556 178.041 136.495 178.774 137.456C179.506 138.418 180.124 139.327 180.628 140.182H177.855C177.279 139.232 176.625 138.299 175.893 137.385C175.161 136.471 174.393 135.61 173.589 134.802C172.785 133.995 171.981 133.259 171.176 132.594C170.372 131.929 169.61 131.371 168.89 130.919V140.182H166.55V112.965L168.89 112.537V130.064L169.317 129.656C169.804 129.188 170.334 128.671 170.906 128.105C171.65 127.369 172.401 126.621 173.157 125.861C173.913 125.101 174.627 124.364 175.299 123.652L175.718 123.205C176.214 122.674 176.65 122.193 177.027 121.764H179.836L178.796 122.834L176.347 125.341L175.785 125.914C175.029 126.686 174.279 127.44 173.535 128.176L171.518 130.171ZM128.492 121.764H121.075V115.921L118.734 116.349V133.306C118.734 134.541 118.83 135.61 119.022 136.512C119.214 137.415 119.544 138.169 120.013 138.775C120.481 139.38 121.105 139.831 121.885 140.128C122.665 140.425 123.631 140.574 124.783 140.574C125.767 140.574 126.68 140.437 127.52 140.164C128.36 139.891 128.948 139.647 129.284 139.434L128.708 137.51C128.417 137.675 128.026 137.853 127.537 138.044L127.304 138.133C126.704 138.359 125.912 138.472 124.927 138.472C124.351 138.472 123.823 138.412 123.343 138.294C122.863 138.175 122.455 137.937 122.119 137.581C121.783 137.225 121.525 136.72 121.345 136.067C121.165 135.414 121.075 134.565 121.075 133.52V123.723H128.492V121.764ZM141.075 138.419C140.391 138.478 139.593 138.508 138.681 138.508C137.937 138.508 137.271 138.443 136.683 138.312C136.095 138.181 135.591 137.973 135.171 137.688C134.751 137.403 134.426 137.023 134.198 136.548C133.97 136.073 133.856 135.492 133.856 134.803C133.856 134.019 134.024 133.39 134.36 132.915C134.697 132.44 135.129 132.066 135.657 131.793C136.185 131.52 136.761 131.341 137.385 131.258C138.009 131.175 138.609 131.134 139.185 131.134C140.193 131.134 140.985 131.199 141.562 131.33C142.138 131.46 142.558 131.585 142.822 131.704V138.187C142.416 138.268 141.936 138.335 141.384 138.39L141.075 138.419ZM138.465 121.336C139.69 121.336 140.728 121.508 141.58 121.852C142.432 122.197 143.122 122.672 143.65 123.277C144.178 123.883 144.562 124.601 144.802 125.433C145.042 126.264 145.162 127.166 145.162 128.14V139.754C144.922 139.825 144.574 139.902 144.118 139.985L143.836 140.036C143.448 140.104 143.014 140.176 142.534 140.252C141.934 140.347 141.268 140.425 140.536 140.484C139.804 140.543 139.053 140.573 138.285 140.573C137.301 140.573 136.395 140.466 135.567 140.252C134.739 140.039 134.019 139.7 133.407 139.237C132.795 138.774 132.314 138.18 131.966 137.456C131.618 136.732 131.444 135.847 131.444 134.802C131.444 133.804 131.636 132.949 132.02 132.237C132.404 131.524 132.945 130.937 133.641 130.473C134.337 130.01 135.165 129.672 136.125 129.458C137.085 129.244 138.129 129.138 139.258 129.138C139.594 129.138 139.948 129.155 140.32 129.191C140.692 129.227 141.052 129.274 141.4 129.334L141.652 129.378C141.854 129.415 142.038 129.452 142.203 129.489L142.3 129.512C142.552 129.571 142.726 129.624 142.822 129.672V128.532C142.822 127.891 142.774 127.267 142.678 126.662C142.582 126.056 142.372 125.51 142.048 125.023C141.724 124.536 141.268 124.144 140.68 123.847C140.092 123.55 139.318 123.402 138.357 123.402C136.989 123.402 135.969 123.497 135.297 123.687L134.958 123.784C134.457 123.93 134.078 124.052 133.821 124.15L133.497 122.12C133.905 121.93 134.535 121.751 135.387 121.585C136.239 121.419 137.265 121.336 138.465 121.336ZM158.286 137.883C157.41 138.323 156.3 138.542 154.956 138.542C154.212 138.542 153.558 138.495 152.994 138.4C152.43 138.305 151.944 138.192 151.535 138.061C151.127 137.931 150.803 137.812 150.563 137.705C150.367 137.618 150.227 137.55 150.143 137.503L150.095 137.474L149.483 139.576C149.735 139.7 150.208 139.875 150.901 140.1L151.211 140.199C152.076 140.472 153.324 140.609 154.956 140.609C157.14 140.609 158.863 140.181 160.123 139.326C161.383 138.471 162.013 137.212 162.013 135.55C162.013 134.671 161.857 133.941 161.545 133.359C161.233 132.777 160.825 132.278 160.321 131.863C159.817 131.447 159.235 131.091 158.575 130.794C157.914 130.497 157.224 130.206 156.504 129.921C155.935 129.688 155.417 129.471 154.952 129.269L154.65 129.138C154.11 128.9 153.654 128.645 153.282 128.372C152.91 128.099 152.628 127.784 152.436 127.428C152.244 127.071 152.148 126.644 152.148 126.145C152.148 125.646 152.256 125.225 152.472 124.88C152.688 124.536 152.976 124.251 153.336 124.025C153.696 123.8 154.11 123.634 154.578 123.527C155.046 123.42 155.544 123.366 156.072 123.366C157.392 123.366 158.395 123.485 159.079 123.723C159.763 123.96 160.249 124.15 160.537 124.293L161.077 122.226C160.741 122.06 160.159 121.87 159.331 121.656C158.503 121.443 157.452 121.336 156.18 121.336C154.188 121.336 152.622 121.799 151.481 122.725C150.341 123.651 149.771 124.863 149.771 126.359C149.771 127.143 149.915 127.808 150.203 128.354C150.491 128.9 150.875 129.369 151.355 129.761C151.835 130.153 152.388 130.497 153.012 130.794C153.636 131.091 154.296 131.382 154.992 131.667L155.494 131.875C156.033 132.1 156.511 132.304 156.928 132.486L157.17 132.593C157.758 132.854 158.232 133.128 158.593 133.413C158.953 133.698 159.211 134.018 159.367 134.374C159.523 134.731 159.601 135.158 159.601 135.657C159.601 136.702 159.163 137.444 158.286 137.883ZM195.3 121.764C194.184 122.001 193.278 122.215 192.582 122.405V140.182H194.922V124.008C195.138 123.913 195.636 123.806 196.416 123.688L196.556 123.667C197.309 123.562 198.217 123.509 199.279 123.509C200.287 123.509 201.097 123.658 201.709 123.955C202.321 124.252 202.795 124.691 203.131 125.273C203.467 125.855 203.689 126.591 203.797 127.482C203.906 128.372 203.96 129.423 203.96 130.634V140.182H206.3V129.708C206.3 128.853 206.246 128.04 206.138 127.268C206.03 126.496 205.868 125.801 205.652 125.184C205.772 125.089 205.97 124.946 206.246 124.756L206.331 124.699C206.594 124.528 206.919 124.357 207.308 124.186C207.74 123.996 208.25 123.836 208.838 123.705C209.426 123.575 210.08 123.509 210.801 123.509C211.761 123.509 212.541 123.658 213.141 123.955C213.741 124.252 214.203 124.691 214.527 125.273C214.851 125.855 215.067 126.591 215.175 127.482C215.283 128.372 215.337 129.423 215.337 130.634V140.182H217.678V129.886C217.678 128.651 217.594 127.511 217.426 126.466C217.258 125.421 216.934 124.525 216.453 123.777C215.973 123.028 215.295 122.447 214.419 122.031C213.543 121.615 212.397 121.408 210.981 121.408C210.116 121.408 209.33 121.491 208.622 121.657C207.914 121.823 207.296 122.025 206.768 122.263C206.24 122.5 205.802 122.732 205.454 122.957C205.152 123.153 204.936 123.299 204.806 123.397L204.752 123.438C203.695 122.084 201.991 121.408 199.639 121.408C197.863 121.408 196.416 121.526 195.3 121.764ZM222.539 130.954C222.539 129.339 222.773 127.932 223.241 126.733C223.709 125.534 224.321 124.53 225.077 123.723C225.833 122.915 226.697 122.316 227.67 121.924C228.642 121.532 229.644 121.336 230.676 121.336C232.956 121.336 234.775 122.072 236.131 123.545C237.487 125.017 238.165 127.285 238.165 130.349C238.165 130.539 238.159 130.729 238.147 130.919C238.135 131.109 238.117 131.287 238.093 131.453H225.023C225.095 133.709 225.659 135.443 226.715 136.654C227.772 137.866 229.452 138.471 231.756 138.471C233.028 138.471 234.037 138.352 234.781 138.115L235.021 138.037C235.642 137.833 236.102 137.657 236.401 137.509L236.833 139.504C236.497 139.694 235.867 139.92 234.943 140.181C234.019 140.442 232.932 140.573 231.684 140.573C230.052 140.573 228.66 140.336 227.508 139.861C226.355 139.386 225.407 138.721 224.663 137.866C223.919 137.011 223.379 135.995 223.043 134.82C222.707 133.644 222.539 132.356 222.539 130.954ZM234.385 125.006C235.249 126.075 235.705 127.571 235.753 129.495H225.095C225.143 128.688 225.305 127.916 225.581 127.179C225.857 126.443 226.241 125.796 226.733 125.238C227.225 124.68 227.801 124.234 228.462 123.902C229.122 123.569 229.872 123.403 230.712 123.403C232.296 123.403 233.52 123.938 234.385 125.006ZM247.202 138.542C248.547 138.542 249.657 138.323 250.533 137.883C251.409 137.444 251.847 136.702 251.847 135.657C251.847 135.158 251.769 134.731 251.613 134.374C251.457 134.018 251.199 133.698 250.839 133.413C250.479 133.128 250.005 132.854 249.417 132.593L249.174 132.486C248.758 132.304 248.28 132.1 247.74 131.875L247.238 131.667C246.542 131.382 245.882 131.091 245.258 130.794C244.634 130.497 244.082 130.153 243.602 129.761C243.122 129.369 242.738 128.9 242.45 128.354C242.162 127.808 242.018 127.143 242.018 126.359C242.018 124.863 242.588 123.651 243.728 122.725C244.868 121.799 246.434 121.336 248.427 121.336C249.699 121.336 250.749 121.443 251.577 121.656C252.405 121.87 252.987 122.06 253.323 122.226L252.783 124.293C252.495 124.15 252.009 123.96 251.325 123.723C250.641 123.485 249.639 123.366 248.319 123.366C247.79 123.366 247.292 123.42 246.824 123.527C246.356 123.634 245.942 123.8 245.582 124.025C245.222 124.251 244.934 124.536 244.718 124.88C244.502 125.225 244.394 125.646 244.394 126.145C244.394 126.644 244.49 127.071 244.682 127.428C244.874 127.784 245.156 128.099 245.528 128.372C245.9 128.645 246.356 128.9 246.896 129.138L247.199 129.269C247.664 129.471 248.181 129.688 248.751 129.921C249.471 130.206 250.161 130.497 250.821 130.794C251.481 131.091 252.063 131.447 252.567 131.863C253.071 132.278 253.479 132.777 253.791 133.359C254.103 133.941 254.259 134.671 254.259 135.55C254.259 137.212 253.629 138.471 252.369 139.326C251.109 140.181 249.387 140.609 247.202 140.609C245.57 140.609 244.322 140.472 243.458 140.199L243.147 140.1C242.454 139.875 241.982 139.7 241.73 139.576L242.342 137.474L242.389 137.503C242.473 137.55 242.613 137.618 242.81 137.705C243.05 137.812 243.374 137.931 243.782 138.061C244.19 138.192 244.676 138.305 245.24 138.4C245.804 138.495 246.458 138.542 247.202 138.542ZM265.944 137.883C265.067 138.323 263.957 138.542 262.613 138.542C261.869 138.542 261.215 138.495 260.651 138.4C260.087 138.305 259.601 138.192 259.193 138.061C258.785 137.931 258.46 137.812 258.22 137.705C258.024 137.618 257.884 137.55 257.8 137.503L257.752 137.474L257.14 139.576C257.392 139.7 257.865 139.875 258.558 140.1L258.869 140.199C259.733 140.472 260.981 140.609 262.613 140.609C264.797 140.609 266.52 140.181 267.78 139.326C269.04 138.471 269.67 137.212 269.67 135.55C269.67 134.671 269.514 133.941 269.202 133.359C268.89 132.777 268.482 132.278 267.978 131.863C267.474 131.447 266.892 131.091 266.232 130.794C265.572 130.497 264.881 130.206 264.161 129.921C263.592 129.688 263.075 129.471 262.609 129.269L262.307 129.138C261.767 128.9 261.311 128.645 260.939 128.372C260.567 128.099 260.285 127.784 260.093 127.428C259.901 127.071 259.805 126.644 259.805 126.145C259.805 125.646 259.913 125.225 260.129 124.88C260.345 124.536 260.633 124.251 260.993 124.025C261.353 123.8 261.767 123.634 262.235 123.527C262.703 123.42 263.201 123.366 263.729 123.366C265.05 123.366 266.052 123.485 266.736 123.723C267.42 123.96 267.906 124.15 268.194 124.293L268.734 122.226C268.398 122.06 267.816 121.87 266.988 121.656C266.16 121.443 265.11 121.336 263.837 121.336C261.845 121.336 260.279 121.799 259.139 122.725C257.998 123.651 257.428 124.863 257.428 126.359C257.428 127.143 257.572 127.808 257.86 128.354C258.148 128.9 258.532 129.369 259.013 129.761C259.493 130.153 260.045 130.497 260.669 130.794C261.293 131.091 261.953 131.382 262.649 131.667L263.151 131.875C263.69 132.1 264.168 132.304 264.585 132.486L264.827 132.593C265.416 132.854 265.89 133.128 266.25 133.413C266.61 133.698 266.868 134.018 267.024 134.374C267.18 134.731 267.258 135.158 267.258 135.657C267.258 136.702 266.82 137.444 265.944 137.883ZM273.09 130.954C273.09 129.339 273.324 127.932 273.792 126.733C274.26 125.534 274.872 124.53 275.629 123.723C276.385 122.915 277.249 122.316 278.221 121.924C279.193 121.532 280.195 121.336 281.227 121.336C283.508 121.336 285.326 122.072 286.682 123.545C288.039 125.017 288.717 127.285 288.717 130.349C288.717 130.539 288.711 130.729 288.699 130.919C288.687 131.109 288.669 131.287 288.645 131.453H275.575C275.647 133.709 276.211 135.443 277.267 136.654C278.323 137.866 280.003 138.471 282.308 138.471C283.58 138.471 284.588 138.352 285.332 138.115L285.573 138.037C286.194 137.833 286.654 137.657 286.952 137.509L287.384 139.504C287.048 139.694 286.418 139.92 285.494 140.181C284.57 140.442 283.484 140.573 282.236 140.573C280.603 140.573 279.211 140.336 278.059 139.861C276.907 139.386 275.959 138.721 275.214 137.866C274.47 137.011 273.93 135.995 273.594 134.82C273.258 133.644 273.09 132.356 273.09 130.954ZM284.936 125.006C285.8 126.075 286.256 127.571 286.304 129.495H275.647C275.695 128.688 275.857 127.916 276.133 127.179C276.409 126.443 276.793 125.796 277.285 125.238C277.777 124.68 278.353 124.234 279.013 123.902C279.673 123.569 280.423 123.403 281.263 123.403C282.848 123.403 284.072 123.938 284.936 125.006ZM293.938 140.182V122.405L294.143 122.35C294.814 122.174 295.682 121.979 296.746 121.764C297.922 121.526 299.363 121.408 301.067 121.408C302.483 121.408 303.665 121.609 304.613 122.013C305.562 122.417 306.318 122.993 306.882 123.741C307.446 124.489 307.848 125.386 308.088 126.431C308.328 127.476 308.448 128.627 308.448 129.886V140.182H306.108V130.634C306.108 129.328 306.018 128.224 305.838 127.321C305.658 126.419 305.358 125.683 304.937 125.113C304.517 124.543 303.965 124.133 303.281 123.883C302.597 123.634 301.739 123.509 300.707 123.509C299.603 123.509 298.648 123.569 297.844 123.688L297.544 123.733C296.909 123.834 296.487 123.926 296.278 124.008V140.182H293.938ZM324.849 138.935C325.269 138.769 325.623 138.608 325.911 138.454C326.199 138.299 326.415 138.163 326.559 138.044V139.255C326.559 141.298 326.061 142.741 325.065 143.584C324.069 144.427 322.466 144.848 320.258 144.848C319.25 144.848 318.248 144.753 317.252 144.563C316.255 144.373 315.469 144.148 314.893 143.887L314.425 145.988C315.121 146.226 315.955 146.434 316.928 146.612C317.9 146.79 318.986 146.879 320.186 146.879C323.091 146.879 325.263 146.291 326.703 145.116C328.143 143.94 328.863 141.975 328.863 139.22V122.405C328.27 122.216 327.533 122.023 326.65 121.825L326.289 121.746C325.245 121.52 323.859 121.408 322.13 121.408C320.762 121.408 319.532 121.639 318.44 122.102C317.348 122.565 316.424 123.207 315.667 124.026C314.911 124.845 314.329 125.813 313.921 126.929C313.513 128.046 313.309 129.257 313.309 130.563C313.309 132.178 313.537 133.55 313.993 134.678C314.449 135.806 315.055 136.726 315.811 137.439C316.568 138.151 317.45 138.674 318.458 139.006C319.466 139.339 320.51 139.505 321.59 139.505C322.262 139.505 322.869 139.451 323.409 139.344C323.949 139.238 324.429 139.101 324.849 138.935ZM326.523 124.008C326.144 123.898 325.661 123.793 325.075 123.693L324.938 123.67C324.29 123.563 323.366 123.51 322.166 123.51C321.158 123.51 320.264 123.682 319.483 124.026C318.703 124.371 318.037 124.857 317.485 125.487C316.933 126.116 316.513 126.864 316.225 127.731C315.937 128.598 315.793 129.554 315.793 130.599C315.793 131.81 315.961 132.849 316.297 133.716C316.633 134.583 317.071 135.289 317.611 135.836C318.151 136.382 318.769 136.78 319.465 137.029C320.162 137.278 320.87 137.403 321.59 137.403C322.646 137.403 323.612 137.249 324.488 136.94C325.364 136.631 326.042 136.275 326.523 135.871V124.008ZM334.642 126.733C334.174 127.932 333.94 129.339 333.94 130.954C333.94 132.356 334.108 133.644 334.444 134.82C334.78 135.995 335.32 137.011 336.064 137.866C336.808 138.721 337.756 139.386 338.908 139.861C340.061 140.336 341.453 140.573 343.085 140.573C344.333 140.573 345.419 140.442 346.344 140.181C347.268 139.92 347.898 139.694 348.234 139.504L347.802 137.509C347.503 137.657 347.043 137.833 346.422 138.037L346.181 138.115C345.437 138.352 344.429 138.471 343.157 138.471C340.853 138.471 339.172 137.866 338.116 136.654C337.06 135.443 336.496 133.709 336.424 131.453H349.494C349.518 131.287 349.536 131.109 349.548 130.919C349.56 130.729 349.566 130.539 349.566 130.349C349.566 127.285 348.888 125.017 347.532 123.545C346.175 122.072 344.357 121.336 342.077 121.336C341.045 121.336 340.043 121.532 339.07 121.924C338.098 122.316 337.234 122.915 336.478 123.723C335.722 124.53 335.11 125.534 334.642 126.733ZM347.154 129.495C347.106 127.571 346.65 126.075 345.785 125.006C344.921 123.938 343.697 123.403 342.113 123.403C341.273 123.403 340.523 123.569 339.863 123.902C339.202 124.234 338.626 124.68 338.134 125.238C337.642 125.796 337.258 126.443 336.982 127.179C336.706 127.916 336.544 128.688 336.496 129.495H347.154ZM363.302 121.586C362.618 121.467 361.892 121.408 361.124 121.408C359.612 121.408 358.328 121.544 357.271 121.817C356.215 122.09 355.387 122.358 354.787 122.619V140.182H357.127V124.044C357.319 123.949 357.721 123.83 358.334 123.688L358.437 123.664C359.036 123.537 359.812 123.474 360.764 123.474C361.724 123.474 362.498 123.527 363.086 123.634C363.674 123.741 364.064 123.842 364.256 123.937L364.725 121.942C364.49 121.836 364.089 121.731 363.523 121.625L363.302 121.586Z" fill="#252525"/>
</svg>
