<?xml version="1.0" encoding="UTF-8"?>
<svg width="200px" height="200px" viewBox="0 0 200 200" version="1.1" xmlns="http://www.w3.org/2000/svg" xmlns:xlink="http://www.w3.org/1999/xlink">
    <title>Log (mid) 200 B</title>
    <g id="Log-(mid)-200-B" stroke="none" stroke-width="1" fill="none" fill-rule="evenodd">
        <g id="Group" transform="translate(6.000000, 61.000000)">
            <path d="M23.606578,67.9802344 L18.6256944,67.9802344 C8.33898337,67.9802344 -1.69225063e-14,59.641251 -1.69225063e-14,49.35454 L-1.69225063e-14,0 L4.98088361,0 C15.2675946,0 23.606578,8.33898337 23.606578,18.6256944 L23.606578,67.9802344 Z" id="Fill-1" fill="#0096FF"></path>
            <path d="M27.2761207,17.2472361 L27.2761207,15.3486296 C27.2761207,11.4277207 30.454705,8.24913634 34.3756139,8.24913634 L41.2437913,8.24913634 L41.2437913,10.147594 C41.2437913,14.0686518 38.065207,17.2472361 34.144298,17.2472361 L27.2761207,17.2472361 Z" id="Fill-3" fill="#FF7F8A"></path>
            <path d="M6.72837561,45.7933764 L6.72837561,40.8124928 C6.72837561,30.5257818 15.067359,22.1867984 25.3539211,22.1867984 L43.3725973,22.1867984 L43.3725973,27.167682 C43.3725973,37.454393 35.0336139,45.7933764 24.7470518,45.7933764 L6.72837561,45.7933764 Z" id="Fill-13" fill="#FFB200"></path>
            <path d="M57.7545527,45.2807601 C58.6476643,45.2807601 59.4415413,45.1765637 60.1361837,44.968171 C60.8308261,44.7597783 61.3170757,44.5861177 61.5949327,44.4471892 L61.5949327,44.4471892 L61.0590657,42.1548694 C60.8605965,42.2342571 60.5083135,42.3682238 60.0022169,42.5567696 C59.4961203,42.7453154 58.8262866,42.8395883 57.9927158,42.8395883 C57.5163895,42.8395883 57.0996041,42.7800475 56.7423595,42.660966 C56.3851148,42.5418844 56.0874109,42.3384534 55.8492478,42.050673 C55.6110847,41.7628926 55.4324624,41.3659541 55.3133808,40.8598575 C55.1942993,40.3537609 55.1347585,39.7136975 55.1347585,38.9396675 L55.1347585,38.9396675 L55.1347585,31.7947743 L60.9995249,31.7947743 L60.9995249,29.4726841 L55.1347585,29.4726841 L55.1347585,24.6796516 L52.3661124,25.1559778 L52.3661124,38.9694378 C52.3661124,40.001478 52.4504619,40.9094748 52.6191607,41.6934283 C52.7878596,42.4773819 53.0806017,43.1372922 53.4973872,43.6731591 C53.9141726,44.2090261 54.4649248,44.6109264 55.1496437,44.8788599 C55.8343626,45.1467933 56.7026656,45.2807601 57.7545527,45.2807601 Z M69.4245447,45.2807601 C70.0397994,45.2807601 70.6600158,45.2559514 71.285194,45.2063341 C71.9103721,45.1567168 72.4908947,45.1021378 73.0267617,45.042597 C73.5626287,44.9830562 74.0439166,44.9185537 74.4706255,44.8490895 C74.8973344,44.7796252 75.2297704,44.7250462 75.4679335,44.6853523 L75.4679335,44.6853523 L75.4679335,35.0099762 C75.4679335,34.1367115 75.3686989,33.3378728 75.1702296,32.61346 C74.9717604,31.8890472 74.6393244,31.2638691 74.1729216,30.7379256 C73.7065189,30.2119821 73.0912642,29.8051201 72.3271576,29.5173397 C71.5630509,29.2295593 70.6252837,29.085669 69.5138559,29.085669 C68.5413566,29.085669 67.6383215,29.160095 66.8047506,29.308947 C65.9711797,29.4577989 65.375772,29.6116126 65.0185273,29.770388 L65.0185273,29.770388 L65.3460016,32.0627078 C65.6833993,31.9237794 66.1944576,31.7898126 66.8791766,31.6608076 C67.5638955,31.5318026 68.3627342,31.4673001 69.2756928,31.4673001 C69.9901821,31.4673001 70.5707047,31.5714964 71.0172605,31.7798892 C71.4638163,31.9882819 71.8160992,32.2661388 72.0741093,32.61346 C72.3321193,32.9607812 72.5107416,33.3577197 72.6099762,33.8042755 C72.7092109,34.2508314 72.7588282,34.7023489 72.7588282,35.1588282 L72.7588282,35.1588282 L72.7588282,35.9328583 C72.6794405,35.9130113 72.540512,35.883241 72.3420428,35.8435471 C72.1435735,35.8038533 71.9103721,35.7591977 71.6424386,35.7095804 C71.3745051,35.6599631 71.0916865,35.6202692 70.7939826,35.5904988 C70.4962787,35.5607284 70.2084983,35.5458432 69.9306413,35.5458432 C69.0573766,35.5458432 68.2238058,35.6351544 67.4299287,35.8137767 C66.6360517,35.992399 65.9414093,36.270256 65.3460016,36.6473476 C64.7505938,37.0244392 64.2792293,37.5206123 63.9319082,38.135867 C63.584587,38.7511217 63.4109264,39.4854579 63.4109264,40.3388757 C63.4109264,41.2319873 63.5597783,41.996094 63.8574822,42.6311956 C64.1551861,43.2662972 64.5719715,43.7773555 65.1078385,44.1643705 C65.6437055,44.5513856 66.2788071,44.8342043 67.0131433,45.0128266 C67.7474795,45.1914489 68.55128,45.2807601 69.4245447,45.2807601 Z M69.752019,42.9586698 C68.6604381,42.9586698 67.7970969,42.7651623 67.1619952,42.3781473 C66.5268936,41.9911322 66.2093428,41.3014516 66.2093428,40.3091053 C66.2093428,39.7732383 66.3383478,39.3415677 66.5963579,39.0140934 C66.8543679,38.6866192 67.1768804,38.4286091 67.5638955,38.2400633 C67.9509105,38.0515176 68.3776194,37.9274743 68.8440222,37.8679335 C69.3104249,37.8083927 69.752019,37.7786223 70.1688044,37.7786223 C70.803906,37.7786223 71.3447348,37.8133544 71.7912906,37.8828187 C72.2378464,37.9522829 72.5603589,38.0366324 72.7588282,38.135867 L72.7588282,38.135867 L72.7588282,42.7502771 C72.4214305,42.8296648 71.9996833,42.8842439 71.4935867,42.9140143 C70.9874901,42.9437846 70.4069675,42.9586698 69.752019,42.9586698 Z M86.9593032,45.3105305 C88.2493534,45.3105305 89.3905516,45.2212193 90.3828979,45.042597 C91.3752441,44.8639747 92.1889681,44.6853523 92.8240697,44.50673 L92.8240697,44.50673 L92.8240697,21.8514648 L90.0554236,22.327791 L90.0554236,30.157403 C89.7180259,29.9390868 89.2069675,29.7108472 88.5222486,29.4726841 C87.8375297,29.234521 87.0486144,29.1154394 86.1555028,29.1154394 C85.044075,29.1154394 84.0566904,29.3139087 83.1933492,29.7108472 C82.3300079,30.1077857 81.6006334,30.6634996 81.0052257,31.3779889 C80.4098179,32.0924782 79.9583003,32.945896 79.650673,33.9382423 C79.3430457,34.9305885 79.189232,36.0221694 79.189232,37.212985 C79.189232,38.4633413 79.372816,39.5896543 79.7399842,40.591924 C80.1071523,41.5941937 80.6281341,42.4426498 81.3029295,43.1372922 C81.977725,43.8319345 82.7914489,44.3678015 83.7441013,44.7448931 C84.6967538,45.1219847 85.7684877,45.3105305 86.9593032,45.3105305 Z M86.9890736,42.8693587 C85.5005542,42.8693587 84.3097387,42.3781473 83.4166271,41.3957245 C82.5235154,40.4133017 82.0769596,39.0190552 82.0769596,37.212985 C82.0769596,36.4191079 82.1563473,35.6748482 82.3151227,34.9802059 C82.4738981,34.2855635 82.7319082,33.685194 83.0891528,33.1790974 C83.4463975,32.6730008 83.9078385,32.2760623 84.4734759,31.9882819 C85.0391132,31.7005015 85.7188704,31.5566112 86.5127474,31.5566112 C87.2669306,31.5566112 87.961573,31.6856163 88.5966746,31.9436263 C89.2317762,32.2016363 89.7180259,32.4695698 90.0554236,32.7474268 L90.0554236,32.7474268 L90.0554236,42.5418844 C89.7775666,42.6212721 89.3855899,42.6956981 88.8794933,42.7651623 C88.3733967,42.8346266 87.7432568,42.8693587 86.9890736,42.8693587 Z M102.499446,45.2807601 C103.1147,45.2807601 103.734917,45.2559514 104.360095,45.2063341 C104.985273,45.1567168 105.565796,45.1021378 106.101663,45.042597 C106.63753,44.9830562 107.118818,44.9185537 107.545527,44.8490895 C107.972235,44.7796252 108.304671,44.7250462 108.542835,44.6853523 L108.542835,44.6853523 L108.542835,35.0099762 C108.542835,34.1367115 108.4436,33.3378728 108.245131,32.61346 C108.046661,31.8890472 107.714225,31.2638691 107.247823,30.7379256 C106.78142,30.2119821 106.166165,29.8051201 105.402059,29.5173397 C104.637952,29.2295593 103.700185,29.085669 102.588757,29.085669 C101.616258,29.085669 100.713222,29.160095 99.8796516,29.308947 C99.0460808,29.4577989 98.450673,29.6116126 98.0934283,29.770388 L98.0934283,29.770388 L98.4209026,32.0627078 C98.7583003,31.9237794 99.2693587,31.7898126 99.9540776,31.6608076 C100.638797,31.5318026 101.437635,31.4673001 102.350594,31.4673001 C103.065083,31.4673001 103.645606,31.5714964 104.092162,31.7798892 C104.538717,31.9882819 104.891,32.2661388 105.14901,32.61346 C105.40702,32.9607812 105.585643,33.3577197 105.684877,33.8042755 C105.784112,34.2508314 105.833729,34.7023489 105.833729,35.1588282 L105.833729,35.1588282 L105.833729,35.9328583 C105.754342,35.9130113 105.615413,35.883241 105.416944,35.8435471 C105.218475,35.8038533 104.985273,35.7591977 104.71734,35.7095804 C104.449406,35.6599631 104.166587,35.6202692 103.868884,35.5904988 C103.57118,35.5607284 103.283399,35.5458432 103.005542,35.5458432 C102.132278,35.5458432 101.298707,35.6351544 100.50483,35.8137767 C99.7109528,35.992399 99.0163104,36.270256 98.4209026,36.6473476 C97.8254949,37.0244392 97.3541304,37.5206123 97.0068092,38.135867 C96.659488,38.7511217 96.4858274,39.4854579 96.4858274,40.3388757 C96.4858274,41.2319873 96.6346793,41.996094 96.9323832,42.6311956 C97.2300871,43.2662972 97.6468725,43.7773555 98.1827395,44.1643705 C98.7186065,44.5513856 99.3537081,44.8342043 100.088044,45.0128266 C100.822381,45.1914489 101.626181,45.2807601 102.499446,45.2807601 Z M102.82692,42.9586698 C101.735339,42.9586698 100.871998,42.7651623 100.236896,42.3781473 C99.6017947,41.9911322 99.2842439,41.3014516 99.2842439,40.3091053 C99.2842439,39.7732383 99.4132489,39.3415677 99.6712589,39.0140934 C99.9292689,38.6866192 100.251781,38.4286091 100.638797,38.2400633 C101.025812,38.0515176 101.45252,37.9274743 101.918923,37.8679335 C102.385326,37.8083927 102.82692,37.7786223 103.243705,37.7786223 C103.878807,37.7786223 104.419636,37.8133544 104.866192,37.8828187 C105.312747,37.9522829 105.63526,38.0366324 105.833729,38.135867 L105.833729,38.135867 L105.833729,42.7502771 C105.496331,42.8296648 105.074584,42.8842439 104.568488,42.9140143 C104.062391,42.9437846 103.481869,42.9586698 102.82692,42.9586698 Z M114.407601,45.3403009 C115.022856,45.3403009 115.509105,45.1418316 115.86635,44.7448931 C116.223595,44.3479546 116.402217,43.8815519 116.402217,43.3456849 C116.402217,42.8098179 116.223595,42.3434151 115.86635,41.9464766 C115.509105,41.5495381 115.022856,41.3510689 114.407601,41.3510689 C113.792346,41.3510689 113.306097,41.5495381 112.948852,41.9464766 C112.591607,42.3434151 112.412985,42.8098179 112.412985,43.3456849 C112.412985,43.8815519 112.591607,44.3479546 112.948852,44.7448931 C113.306097,45.1418316 113.792346,45.3403009 114.407601,45.3403009 Z M125.660808,45.2807601 C126.553919,45.2807601 127.347796,45.1765637 128.042439,44.968171 C128.737081,44.7597783 129.223331,44.5861177 129.501188,44.4471892 L129.501188,44.4471892 L128.965321,42.1548694 C128.766851,42.2342571 128.414568,42.3682238 127.908472,42.5567696 C127.402375,42.7453154 126.732542,42.8395883 125.898971,42.8395883 C125.422644,42.8395883 125.005859,42.7800475 124.648614,42.660966 C124.29137,42.5418844 123.993666,42.3384534 123.755503,42.050673 C123.51734,41.7628926 123.338717,41.3659541 123.219636,40.8598575 C123.100554,40.3537609 123.041013,39.7136975 123.041013,38.9396675 L123.041013,38.9396675 L123.041013,31.7947743 L128.90578,31.7947743 L128.90578,29.4726841 L123.041013,29.4726841 L123.041013,24.6796516 L120.272367,25.1559778 L120.272367,38.9694378 C120.272367,40.001478 120.356717,40.9094748 120.525416,41.6934283 C120.694115,42.4773819 120.986857,43.1372922 121.403642,43.6731591 C121.820428,44.2090261 122.37118,44.6109264 123.055899,44.8788599 C123.740618,45.1467933 124.608921,45.2807601 125.660808,45.2807601 Z M139.355186,45.3105305 C140.42692,45.3105305 141.384534,45.2112959 142.228029,45.0128266 C143.071523,44.8143574 143.661969,44.6258116 143.999367,44.4471892 L143.999367,44.4471892 L143.612352,42.125099 C143.274954,42.2838744 142.773819,42.4476115 142.108947,42.6163104 C141.444075,42.7850092 140.625389,42.8693587 139.65289,42.8693587 C137.926207,42.8693587 136.656004,42.4525732 135.84228,41.6190024 C135.028556,40.7854315 134.562154,39.5648456 134.443072,37.9572447 L134.443072,37.9572447 L145.04133,37.9572447 C145.061177,37.7984693 145.071101,37.6248087 145.071101,37.4362629 L145.071101,37.4362629 L145.071101,36.9748219 C145.071101,34.3153339 144.515387,32.3356031 143.403959,31.0356295 C142.292531,29.7356558 140.694854,29.085669 138.610926,29.085669 C137.717815,29.085669 136.84455,29.2543679 135.991132,29.5917656 C135.137714,29.9291634 134.383531,30.43526 133.728583,31.1100554 C133.073634,31.7848509 132.547691,32.6333069 132.150752,33.6554236 C131.753814,34.6775402 131.555344,35.8733175 131.555344,37.2427553 C131.555344,38.4137239 131.709158,39.4904196 132.016785,40.4728424 C132.324413,41.4552652 132.795777,42.3037213 133.430879,43.0182106 C134.06598,43.7326999 134.874743,44.2933756 135.857165,44.7002375 C136.839588,45.1070995 138.005595,45.3105305 139.355186,45.3105305 Z M142.183373,35.7244656 L134.502613,35.7244656 C134.562154,35.1885986 134.686197,34.6626551 134.874743,34.146635 C135.063288,33.6306149 135.32626,33.1741357 135.663658,32.7771971 C136.001056,32.3802586 136.412879,32.0577461 136.899129,31.8096595 C137.385379,31.561573 137.946054,31.4375297 138.581156,31.4375297 C139.712431,31.4375297 140.600581,31.8394299 141.245606,32.6432304 C141.890631,33.4470309 142.20322,34.4741093 142.183373,35.7244656 L142.183373,35.7244656 Z M153.972447,45.2807601 C154.587701,45.2807601 155.207918,45.2559514 155.833096,45.2063341 C156.458274,45.1567168 157.038797,45.1021378 157.574663,45.042597 C158.11053,44.9830562 158.591818,44.9185537 159.018527,44.8490895 C159.445236,44.7796252 159.777672,44.7250462 160.015835,44.6853523 L160.015835,44.6853523 L160.015835,35.0099762 C160.015835,34.1367115 159.916601,33.3378728 159.718131,32.61346 C159.519662,31.8890472 159.187226,31.2638691 158.720823,30.7379256 C158.254421,30.2119821 157.639166,29.8051201 156.875059,29.5173397 C156.110953,29.2295593 155.173186,29.085669 154.061758,29.085669 C153.089258,29.085669 152.186223,29.160095 151.352652,29.308947 C150.519082,29.4577989 149.923674,29.6116126 149.566429,29.770388 L149.566429,29.770388 L149.893903,32.0627078 C150.231301,31.9237794 150.742359,31.7898126 151.427078,31.6608076 C152.111797,31.5318026 152.910636,31.4673001 153.823595,31.4673001 C154.538084,31.4673001 155.118606,31.5714964 155.565162,31.7798892 C156.011718,31.9882819 156.364001,32.2661388 156.622011,32.61346 C156.880021,32.9607812 157.058643,33.3577197 157.157878,33.8042755 C157.257113,34.2508314 157.30673,34.7023489 157.30673,35.1588282 L157.30673,35.1588282 L157.30673,35.9328583 C157.227342,35.9130113 157.088414,35.883241 156.889945,35.8435471 C156.691475,35.8038533 156.458274,35.7591977 156.19034,35.7095804 C155.922407,35.6599631 155.639588,35.6202692 155.341884,35.5904988 C155.044181,35.5607284 154.7564,35.5458432 154.478543,35.5458432 C153.605278,35.5458432 152.771708,35.6351544 151.977831,35.8137767 C151.183954,35.992399 150.489311,36.270256 149.893903,36.6473476 C149.298496,37.0244392 148.827131,37.5206123 148.47981,38.135867 C148.132489,38.7511217 147.958828,39.4854579 147.958828,40.3388757 C147.958828,41.2319873 148.10768,41.996094 148.405384,42.6311956 C148.703088,43.2662972 149.119873,43.7773555 149.65574,44.1643705 C150.191607,44.5513856 150.826709,44.8342043 151.561045,45.0128266 C152.295381,45.1914489 153.099182,45.2807601 153.972447,45.2807601 Z M154.299921,42.9586698 C153.20834,42.9586698 152.344999,42.7651623 151.709897,42.3781473 C151.074795,41.9911322 150.757245,41.3014516 150.757245,40.3091053 C150.757245,39.7732383 150.88625,39.3415677 151.14426,39.0140934 C151.40227,38.6866192 151.724782,38.4286091 152.111797,38.2400633 C152.498812,38.0515176 152.925521,37.9274743 153.391924,37.8679335 C153.858327,37.8083927 154.299921,37.7786223 154.716706,37.7786223 C155.351808,37.7786223 155.892637,37.8133544 156.339192,37.8828187 C156.785748,37.9522829 157.108261,38.0366324 157.30673,38.135867 L157.30673,38.135867 L157.30673,42.7502771 C156.969332,42.8296648 156.547585,42.8842439 156.041489,42.9140143 C155.535392,42.9437846 154.954869,42.9586698 154.299921,42.9586698 Z M167.369121,44.9532858 L167.369121,31.8840855 C167.448509,31.8642386 167.607284,31.8344682 167.845447,31.7947743 C168.08361,31.7550805 168.346582,31.7203484 168.634363,31.690578 C168.922143,31.6608076 169.224809,31.6359989 169.542359,31.616152 C169.85991,31.5963051 170.157614,31.5863816 170.435471,31.5863816 C171.09042,31.5863816 171.631248,31.690578 172.057957,31.8989707 C172.484666,32.1073634 172.822064,32.429876 173.07015,32.8665083 C173.318237,33.3031407 173.491898,33.8489311 173.591132,34.5038797 C173.690367,35.1588282 173.739984,35.9427817 173.739984,36.8557403 L173.739984,36.8557403 L173.739984,44.9532858 L176.50863,44.9532858 L176.50863,36.2603325 C176.50863,35.5855371 176.468936,34.940512 176.389549,34.3252573 C176.310161,33.7100026 176.191079,33.1443653 176.032304,32.6283452 C176.25062,32.429876 176.662444,32.206598 177.267775,31.9585115 C177.873106,31.7104249 178.642175,31.5863816 179.57498,31.5863816 C180.249776,31.5863816 180.800528,31.690578 181.227237,31.8989707 C181.653946,32.1073634 181.991343,32.429876 182.23943,32.8665083 C182.487516,33.3031407 182.656215,33.8489311 182.745527,34.5038797 C182.834838,35.1588282 182.879493,35.9427817 182.879493,36.8557403 L182.879493,36.8557403 L182.879493,44.9532858 L185.648139,44.9532858 L185.648139,36.2603325 C185.648139,35.2282924 185.573713,34.27564 185.424861,33.4023753 C185.27601,32.5291106 184.988229,31.7749274 184.56152,31.1398258 C184.134811,30.5047242 183.544365,30.0135128 182.790182,29.6661916 C182.035999,29.3188704 181.0635,29.1452098 179.872684,29.1452098 C179.257429,29.1452098 178.681869,29.2097123 178.146002,29.3387173 C177.610135,29.4677224 177.123885,29.6165743 176.687253,29.7852732 C176.25062,29.953972 175.883452,30.1276326 175.585748,30.3062549 C175.288044,30.4848773 175.069728,30.6238058 174.9308,30.7230404 C174.47432,30.2070203 173.908683,29.8150435 173.233888,29.5471101 C172.559092,29.2791766 171.725521,29.1452098 170.733175,29.1452098 C169.363737,29.1452098 168.158036,29.234521 167.116073,29.4131433 C166.074109,29.5917656 165.235577,29.7604645 164.600475,29.9192399 L164.600475,29.9192399 L164.600475,44.9532858 L167.369121,44.9532858 Z" id="tada.team" fill="#FFFFFF" fill-rule="nonzero"></path>
        </g>
    </g>
</svg>