<?xml version="1.0" encoding="UTF-8"?>
<svg width="200px" height="88px" viewBox="0 0 200 88" version="1.1" xmlns="http://www.w3.org/2000/svg" xmlns:xlink="http://www.w3.org/1999/xlink">
    <title>logo</title>
    <g id="logo" stroke="none" stroke-width="1" fill="none" fill-rule="evenodd">
        <g id="Group" transform="translate(7.000000, 9.000000)">
            <path d="M24,68 L18.9361061,68 C8.47795903,68 0,59.658592 0,49.3688901 L0,0 L5.06389392,0 C15.522041,0 24,8.34140798 24,18.6311099 L24,68 Z" id="Fill-1" fill="#0096FF"></path>
            <path d="M27,17 L27,15.1009926 C27,11.1792556 30.1859414,8 34.1159257,8 L41,8 L41,9.89885856 C41,13.8207444 37.8140586,17 33.8840743,17 L27,17 Z" id="Fill-3" fill="#FF7F8A"></path>
            <path d="M7,46 L7,40.9361061 C7,30.477959 15.4199465,22 25.8063807,22 L44,22 L44,27.0638939 C44,37.522041 35.5800535,46 25.1936193,46 L7,46 Z" id="Fill-13" fill="#FFB200"></path>
            <path d="M57.3770382,44.9416984 C58.26826,44.9416984 59.0604572,44.8396705 59.7536297,44.6356147 C60.4468022,44.4315589 60.9320229,44.2615125 61.2092919,44.1254753 L61.2092919,44.1254753 L60.6745589,41.8808619 C60.4765096,41.9585974 60.1249721,42.0897761 59.6199464,42.274398 C59.1149207,42.4590199 58.4465044,42.5513308 57.6146973,42.5513308 C57.139379,42.5513308 56.7234755,42.4930292 56.3669868,42.3764259 C56.0104981,42.2598226 55.7134242,42.0606253 55.475765,41.778834 C55.2381059,41.4970427 55.0598615,41.108365 54.9410319,40.612801 C54.8222024,40.117237 54.7627876,39.4904943 54.7627876,38.7325729 L54.7627876,38.7325729 L54.7627876,31.7363752 L60.6151441,31.7363752 L60.6151441,29.4626109 L54.7627876,29.4626109 L54.7627876,24.7693283 L52,25.2357414 L52,38.7617237 C52,39.7722856 52.0841709,40.6613857 52.2525128,41.4290241 C52.4208547,42.1966624 52.7129774,42.842839 53.1288809,43.3675539 C53.5447845,43.8922687 54.0943712,44.2858048 54.7776413,44.5481622 C55.4609113,44.8105196 56.327377,44.9416984 57.3770382,44.9416984 Z M69.0223364,44.9416984 C69.6362892,44.9416984 70.2551932,44.917406 70.8790485,44.8688213 C71.5029037,44.8202366 72.0821979,44.7667934 72.616931,44.7084918 C73.1516641,44.6501901 73.6319336,44.58703 74.0577396,44.5190114 C74.4835455,44.4509928 74.8152781,44.3975496 75.0529372,44.3586819 L75.0529372,44.3586819 L75.0529372,34.8846641 C75.0529372,34.0295733 74.9539126,33.2473595 74.7558633,32.5380228 C74.557814,31.8286861 74.2260815,31.2165188 73.7606656,30.7015209 C73.2952498,30.186523 72.681297,29.7881284 71.9188072,29.5063371 C71.1563175,29.2245458 70.2205346,29.0836502 69.1114586,29.0836502 C68.1410171,29.0836502 67.2398928,29.1565272 66.4080858,29.3022814 C65.5762788,29.4480355 64.9821309,29.5986481 64.6256422,29.7541191 L64.6256422,29.7541191 L64.9524235,31.9987326 C65.2891073,31.8626954 65.7990842,31.7315167 66.4823543,31.6051965 C67.1656243,31.4788762 67.9627727,31.4157161 68.8737994,31.4157161 C69.5867769,31.4157161 70.166071,31.517744 70.6116819,31.7217997 C71.0572928,31.9258555 71.4088303,32.1979299 71.6662944,32.5380228 C71.9237585,32.8781158 72.1020028,33.2667934 72.2010275,33.7040558 C72.3000521,34.1413181 72.3495644,34.583439 72.3495644,35.0304183 L72.3495644,35.0304183 L72.3495644,35.7883397 C72.2703447,35.7689058 72.1317102,35.739755 71.9336609,35.7008872 C71.7356116,35.6620194 71.5029037,35.6182932 71.2355372,35.5697085 C70.9681706,35.5211238 70.6859504,35.482256 70.3888765,35.4531052 C70.0918025,35.4239544 69.8046311,35.409379 69.5273621,35.409379 C68.6559452,35.409379 67.8241382,35.4968314 67.031941,35.6717364 C66.2397439,35.8466413 65.5465714,36.1187157 64.9524235,36.4879594 C64.3582756,36.8572032 63.8879086,37.3430503 63.5413223,37.9455006 C63.1947361,38.547951 63.0214429,39.2670046 63.0214429,40.1026616 C63.0214429,40.9771863 63.1699799,41.7253908 63.4670538,42.347275 C63.7641278,42.9691593 64.1800313,43.4695817 64.7147644,43.8485425 C65.2494974,44.2275032 65.8832552,44.504436 66.6160375,44.6793409 C67.3488199,44.8542459 68.1509195,44.9416984 69.0223364,44.9416984 Z M69.3491177,42.6679341 C68.2598466,42.6679341 67.3983322,42.4784537 66.7645745,42.099493 C66.1308168,41.7205323 65.8139379,41.0452049 65.8139379,40.0735108 C65.8139379,39.5487959 65.9426699,39.126109 66.200134,38.8054499 C66.4575981,38.4847909 66.7794282,38.2321504 67.1656243,38.0475285 C67.5518204,37.8629066 67.9776264,37.7414449 68.4430422,37.6831432 C68.908458,37.6248416 69.3491177,37.5956907 69.7650212,37.5956907 C70.3987789,37.5956907 70.9384633,37.6297 71.3840742,37.6977186 C71.8296851,37.7657372 72.1515152,37.8483312 72.3495644,37.9455006 L72.3495644,37.9455006 L72.3495644,42.4638783 C72.0128806,42.5416139 71.5920259,42.595057 71.0870002,42.6242079 C70.5819745,42.6533587 70.0026804,42.6679341 69.3491177,42.6679341 Z M86.5199911,44.9708492 C87.8073114,44.9708492 88.9460949,44.8833967 89.9363413,44.7084918 C90.9265877,44.5335868 91.7385898,44.3586819 92.3723476,44.1837769 L92.3723476,44.1837769 L92.3723476,22 L89.60956,22.4664132 L89.60956,30.1330798 C89.2728762,29.9193071 88.7628993,29.6958175 88.0796292,29.4626109 C87.3963592,29.2294043 86.6091132,29.112801 85.7178914,29.112801 C84.6088154,29.112801 83.6235202,29.3071398 82.7620058,29.6958175 C81.9004914,30.0844951 81.1726603,30.6286439 80.5785124,31.3282636 C79.9843645,32.0278834 79.5338024,32.8635403 79.226826,33.8352345 C78.9198496,34.8069286 78.7663614,35.8757921 78.7663614,37.0418251 C78.7663614,38.2661597 78.949557,39.3690325 79.3159482,40.3504436 C79.6823394,41.3318547 80.2022187,42.1626531 80.8755863,42.842839 C81.5489539,43.5230249 82.360956,44.0477398 83.3115926,44.4169835 C84.2622292,44.7862273 85.3316953,44.9708492 86.5199911,44.9708492 Z M86.5496985,42.5804816 C85.0643288,42.5804816 83.8760331,42.099493 82.9848113,41.1375158 C82.0935895,40.1755387 81.6479786,38.8103084 81.6479786,37.0418251 C81.6479786,36.2644698 81.7271983,35.5356992 81.8856377,34.8555133 C82.0440771,34.1753274 82.3015412,33.5874525 82.6580299,33.0918885 C83.0145187,32.5963245 83.4749832,32.2076468 84.0394237,31.9258555 C84.6038642,31.6440642 85.282183,31.5031686 86.0743802,31.5031686 C86.8269675,31.5031686 87.52014,31.6294888 88.1538977,31.8821293 C88.7876554,32.1347698 89.2728762,32.3971272 89.60956,32.6692015 L89.60956,32.6692015 L89.60956,42.2598226 C89.332291,42.3375581 88.9411436,42.4104351 88.4361179,42.4784537 C87.9310922,42.5464723 87.3022858,42.5804816 86.5496985,42.5804816 Z M102.02725,44.9416984 C102.641203,44.9416984 103.260107,44.917406 103.883962,44.8688213 C104.507818,44.8202366 105.087112,44.7667934 105.621845,44.7084918 C106.156578,44.6501901 106.636848,44.58703 107.062654,44.5190114 C107.48846,44.4509928 107.820192,44.3975496 108.057851,44.3586819 L108.057851,44.3586819 L108.057851,34.8846641 C108.057851,34.0295733 107.958827,33.2473595 107.760777,32.5380228 C107.562728,31.8286861 107.230995,31.2165188 106.76558,30.7015209 C106.300164,30.186523 105.686211,29.7881284 104.923721,29.5063371 C104.161231,29.2245458 103.225449,29.0836502 102.116373,29.0836502 C101.145931,29.0836502 100.244807,29.1565272 99.4129998,29.3022814 C98.5811928,29.4480355 97.9870449,29.5986481 97.6305562,29.7541191 L97.6305562,29.7541191 L97.9573375,31.9987326 C98.2940213,31.8626954 98.8039982,31.7315167 99.4872683,31.6051965 C100.170538,31.4788762 100.967687,31.4157161 101.878713,31.4157161 C102.591691,31.4157161 103.170985,31.517744 103.616596,31.7217997 C104.062207,31.9258555 104.413744,32.1979299 104.671208,32.5380228 C104.928672,32.8781158 105.106917,33.2667934 105.205941,33.7040558 C105.304966,34.1413181 105.354478,34.583439 105.354478,35.0304183 L105.354478,35.0304183 L105.354478,35.7883397 C105.275259,35.7689058 105.136624,35.739755 104.938575,35.7008872 C104.740526,35.6620194 104.507818,35.6182932 104.240451,35.5697085 C103.973085,35.5211238 103.690864,35.482256 103.39379,35.4531052 C103.096717,35.4239544 102.809545,35.409379 102.532276,35.409379 C101.660859,35.409379 100.829052,35.4968314 100.036855,35.6717364 C99.2446579,35.8466413 98.5514854,36.1187157 97.9573375,36.4879594 C97.3631896,36.8572032 96.8928226,37.3430503 96.5462363,37.9455006 C96.1996501,38.547951 96.0263569,39.2670046 96.0263569,40.1026616 C96.0263569,40.9771863 96.1748939,41.7253908 96.4719678,42.347275 C96.7690418,42.9691593 97.1849453,43.4695817 97.7196784,43.8485425 C98.2544114,44.2275032 98.8881692,44.504436 99.6209515,44.6793409 C100.353734,44.8542459 101.155834,44.9416984 102.02725,44.9416984 Z M102.354032,42.6679341 C101.264761,42.6679341 100.403246,42.4784537 99.7694885,42.099493 C99.1357308,41.7205323 98.8188519,41.0452049 98.8188519,40.0735108 C98.8188519,39.5487959 98.9475839,39.126109 99.205048,38.8054499 C99.4625121,38.4847909 99.7843422,38.2321504 100.170538,38.0475285 C100.556734,37.8629066 100.98254,37.7414449 101.447956,37.6831432 C101.913372,37.6248416 102.354032,37.5956907 102.769935,37.5956907 C103.403693,37.5956907 103.943377,37.6297 104.388988,37.6977186 C104.834599,37.7657372 105.156429,37.8483312 105.354478,37.9455006 L105.354478,37.9455006 L105.354478,42.4638783 C105.017795,42.5416139 104.59694,42.595057 104.091914,42.6242079 C103.586889,42.6533587 103.007594,42.6679341 102.354032,42.6679341 Z M113.910208,45 C114.524161,45 115.009381,44.8056612 115.36587,44.4169835 C115.722359,44.0283059 115.900603,43.5716096 115.900603,43.0468948 C115.900603,42.52218 115.722359,42.0654837 115.36587,41.6768061 C115.009381,41.2881284 114.524161,41.0937896 113.910208,41.0937896 C113.296255,41.0937896 112.811034,41.2881284 112.454545,41.6768061 C112.098057,42.0654837 111.919812,42.52218 111.919812,43.0468948 C111.919812,43.5716096 112.098057,44.0283059 112.454545,44.4169835 C112.811034,44.8056612 113.296255,45 113.910208,45 Z M125.139602,44.9416984 C126.030824,44.9416984 126.823021,44.8396705 127.516194,44.6356147 C128.209366,44.4315589 128.694587,44.2615125 128.971856,44.1254753 L128.971856,44.1254753 L128.437123,41.8808619 C128.239074,41.9585974 127.887536,42.0897761 127.382511,42.274398 C126.877485,42.4590199 126.209069,42.5513308 125.377262,42.5513308 C124.901943,42.5513308 124.48604,42.4930292 124.129551,42.3764259 C123.773062,42.2598226 123.475988,42.0606253 123.238329,41.778834 C123.00067,41.4970427 122.822426,41.108365 122.703596,40.612801 C122.584767,40.117237 122.525352,39.4904943 122.525352,38.7325729 L122.525352,38.7325729 L122.525352,31.7363752 L128.377708,31.7363752 L128.377708,29.4626109 L122.525352,29.4626109 L122.525352,24.7693283 L119.762564,25.2357414 L119.762564,38.7617237 C119.762564,39.7722856 119.846735,40.6613857 120.015077,41.4290241 C120.183419,42.1966624 120.475542,42.842839 120.891445,43.3675539 C121.307349,43.8922687 121.856935,44.2858048 122.540205,44.5481622 C123.223476,44.8105196 124.089941,44.9416984 125.139602,44.9416984 Z M138.805003,44.9708492 C139.87447,44.9708492 140.830057,44.8736798 141.671767,44.6793409 C142.513476,44.4850021 143.102673,44.3003802 143.439357,44.1254753 L143.439357,44.1254753 L143.053161,41.851711 C142.716477,42.0071821 142.216402,42.1675116 141.552937,42.3326996 C140.889472,42.4978876 140.072519,42.5804816 139.102077,42.5804816 C137.379048,42.5804816 136.111533,42.1723701 135.299531,41.356147 C134.487529,40.539924 134.022113,39.3447402 133.903283,37.7705957 L133.903283,37.7705957 L144.479115,37.7705957 C144.49892,37.6151246 144.508823,37.4450782 144.508823,37.2604563 L144.508823,37.2604563 L144.508823,36.8086185 C144.508823,34.2044782 143.954285,32.2659485 142.845209,30.9930292 C141.736133,29.7201098 140.141836,29.0836502 138.062319,29.0836502 C137.171097,29.0836502 136.29968,29.2488382 135.448068,29.5792142 C134.596456,29.9095902 133.843869,30.4051542 133.190306,31.0659062 C132.536743,31.7266582 132.011913,32.5574567 131.615814,33.5583016 C131.219716,34.5591466 131.021666,35.730038 131.021666,37.0709759 C131.021666,38.217575 131.175154,39.2718631 131.482131,40.2338403 C131.789107,41.1958175 132.259474,42.026616 132.893232,42.7262357 C133.52699,43.4258555 134.334041,43.9748627 135.314385,44.3732573 C136.294729,44.7716519 137.458268,44.9708492 138.805003,44.9708492 Z M141.627206,35.5842839 L133.962698,35.5842839 C134.022113,35.0595691 134.145894,34.5445712 134.334041,34.0392902 C134.522187,33.5340093 134.784603,33.08703 135.121287,32.6983523 C135.45797,32.3096747 135.868923,31.9938741 136.354143,31.7509506 C136.839364,31.508027 137.398853,31.3865653 138.032611,31.3865653 C139.161492,31.3865653 140.047763,31.7801014 140.691423,32.5671736 C141.335083,33.3542459 141.647011,34.3599493 141.627206,35.5842839 L141.627206,35.5842839 Z M153.391333,44.9416984 C154.005286,44.9416984 154.62419,44.917406 155.248046,44.8688213 C155.871901,44.8202366 156.451195,44.7667934 156.985928,44.7084918 C157.520661,44.6501901 158.000931,44.58703 158.426737,44.5190114 C158.852543,44.4509928 159.184275,44.3975496 159.421934,44.3586819 L159.421934,44.3586819 L159.421934,34.8846641 C159.421934,34.0295733 159.32291,33.2473595 159.12486,32.5380228 C158.926811,31.8286861 158.595079,31.2165188 158.129663,30.7015209 C157.664247,30.186523 157.050294,29.7881284 156.287804,29.5063371 C155.525315,29.2245458 154.589532,29.0836502 153.480456,29.0836502 C152.510014,29.0836502 151.60889,29.1565272 150.777083,29.3022814 C149.945276,29.4480355 149.351128,29.5986481 148.994639,29.7541191 L148.994639,29.7541191 L149.321421,31.9987326 C149.658104,31.8626954 150.168081,31.7315167 150.851351,31.6051965 C151.534621,31.4788762 152.33177,31.4157161 153.242797,31.4157161 C153.955774,31.4157161 154.535068,31.517744 154.980679,31.7217997 C155.42629,31.9258555 155.777827,32.1979299 156.035291,32.5380228 C156.292756,32.8781158 156.471,33.2667934 156.570025,33.7040558 C156.669049,34.1413181 156.718562,34.583439 156.718562,35.0304183 L156.718562,35.0304183 L156.718562,35.7883397 C156.639342,35.7689058 156.500707,35.739755 156.302658,35.7008872 C156.104609,35.6620194 155.871901,35.6182932 155.604534,35.5697085 C155.337168,35.5211238 155.054948,35.482256 154.757874,35.4531052 C154.4608,35.4239544 154.173628,35.409379 153.896359,35.409379 C153.024942,35.409379 152.193135,35.4968314 151.400938,35.6717364 C150.608741,35.8466413 149.915568,36.1187157 149.321421,36.4879594 C148.727273,36.8572032 148.256906,37.3430503 147.910319,37.9455006 C147.563733,38.547951 147.39044,39.2670046 147.39044,40.1026616 C147.39044,40.9771863 147.538977,41.7253908 147.836051,42.347275 C148.133125,42.9691593 148.549028,43.4695817 149.083761,43.8485425 C149.618495,44.2275032 150.252252,44.504436 150.985035,44.6793409 C151.717817,44.8542459 152.519917,44.9416984 153.391333,44.9416984 Z M153.718115,42.6679341 C152.628844,42.6679341 151.767329,42.4784537 151.133572,42.099493 C150.499814,41.7205323 150.182935,41.0452049 150.182935,40.0735108 C150.182935,39.5487959 150.311667,39.126109 150.569131,38.8054499 C150.826595,38.4847909 151.148425,38.2321504 151.534621,38.0475285 C151.920818,37.8629066 152.346623,37.7414449 152.812039,37.6831432 C153.277455,37.6248416 153.718115,37.5956907 154.134018,37.5956907 C154.767776,37.5956907 155.30746,37.6297 155.753071,37.6977186 C156.198682,37.7657372 156.520512,37.8483312 156.718562,37.9455006 L156.718562,37.9455006 L156.718562,42.4638783 C156.381878,42.5416139 155.961023,42.595057 155.455997,42.6242079 C154.950972,42.6533587 154.371677,42.6679341 153.718115,42.6679341 Z M166.75966,44.6210393 L166.75966,31.8238276 C166.83888,31.8043937 166.99732,31.7752429 167.234979,31.7363752 C167.472638,31.6975074 167.735053,31.6634981 168.022225,31.6343473 C168.309396,31.6051965 168.611421,31.5809041 168.9283,31.5614702 C169.245179,31.5420363 169.542253,31.5323194 169.819522,31.5323194 C170.473085,31.5323194 171.012769,31.6343473 171.438575,31.838403 C171.864381,32.0424588 172.201065,32.3582594 172.448626,32.7858048 C172.696188,33.2133502 172.869481,33.747782 172.968506,34.3891001 C173.06753,35.0304183 173.117043,35.7980566 173.117043,36.6920152 L173.117043,36.6920152 L173.117043,44.6210393 L175.87983,44.6210393 L175.87983,36.1089987 C175.87983,35.4482467 175.84022,34.8166455 175.761001,34.2141952 C175.681781,33.6117448 175.562951,33.0578792 175.404512,32.5525982 C175.622366,32.3582594 176.033318,32.1396282 176.637369,31.8967047 C177.241419,31.6537812 178.00886,31.5323194 178.939692,31.5323194 C179.613059,31.5323194 180.162646,31.6343473 180.588452,31.838403 C181.014258,32.0424588 181.350942,32.3582594 181.598503,32.7858048 C181.846065,33.2133502 182.014407,33.747782 182.103529,34.3891001 C182.192651,35.0304183 182.237212,35.7980566 182.237212,36.6920152 L182.237212,36.6920152 L182.237212,44.6210393 L185,44.6210393 L185,36.1089987 C185,35.0984368 184.925732,34.1656105 184.777195,33.3105196 C184.628658,32.4554288 184.341486,31.7169413 183.91568,31.095057 C183.489874,30.4731728 182.900678,29.9921842 182.14809,29.6520913 C181.395503,29.3119983 180.425061,29.1419518 179.236766,29.1419518 C178.622813,29.1419518 178.04847,29.205112 177.513737,29.3314322 C176.979004,29.4577524 176.493783,29.6035065 176.058075,29.7686946 C175.622366,29.9338826 175.255975,30.103929 174.958901,30.278834 C174.661827,30.4537389 174.443973,30.5897761 174.305338,30.6869455 C173.849825,30.1816646 173.285385,29.7978454 172.612017,29.535488 C171.938649,29.2731305 171.106842,29.1419518 170.116596,29.1419518 C168.750056,29.1419518 167.546906,29.2294043 166.507148,29.4043093 C165.467389,29.5792142 164.630631,29.7444022 163.996873,29.8998733 L163.996873,29.8998733 L163.996873,44.6210393 L166.75966,44.6210393 Z" id="tada.team" fill="#252525" fill-rule="nonzero"></path>
        </g>
    </g>
</svg>